<?xml version="1.0" standalone="no"?><!DOCTYPE svg PUBLIC "-//W3C//DTD SVG 1.1//EN" "http://www.w3.org/Graphics/SVG/1.1/DTD/svg11.dtd"><svg t="1750604309217" class="icon" viewBox="0 0 1024 1024" version="1.1" xmlns="http://www.w3.org/2000/svg" p-id="11726" xmlns:xlink="http://www.w3.org/1999/xlink" width="200" height="200"><path d="M711.111111 170.652444H312.888889c-125.667556 0-227.555556 101.888-227.555556 227.555556v312.888889c0 125.681778 101.888 227.555556 227.555556 227.555555h398.222222c125.667556 0 227.555556-101.873778 227.555556-227.555555v-312.888889c0-125.667556-101.888-227.555556-227.555556-227.555556m0 85.333334c78.421333 0 142.222222 63.800889 142.222222 142.222222v312.888889c0 78.421333-63.800889 142.222222-142.222222 142.222222H312.888889c-78.421333 0-142.222222-63.800889-142.222222-142.222222v-312.888889c0-78.421333 63.800889-142.222222 142.222222-142.222222h398.222222" fill="#000000" p-id="11727"></path><path d="M341.333333 341.319111a42.666667 42.666667 0 0 1-42.666666-42.666667v-170.666666a42.666667 42.666667 0 0 1 85.333333 0v170.666666a42.666667 42.666667 0 0 1-42.666667 42.666667M682.666667 341.319111a42.666667 42.666667 0 0 1-42.666667-42.666667v-170.666666a42.666667 42.666667 0 0 1 85.333333 0v170.666666a42.666667 42.666667 0 0 1-42.666666 42.666667M256 469.319111a42.666667 42.666667 0 0 1 42.666667-42.666667h426.666666a42.666667 42.666667 0 1 1 0 85.333334H298.666667a42.666667 42.666667 0 0 1-42.666667-42.666667" fill="#000000" p-id="11728"></path></svg>