<?xml version="1.0" standalone="no"?><!DOCTYPE svg PUBLIC "-//W3C//DTD SVG 1.1//EN" "http://www.w3.org/Graphics/SVG/1.1/DTD/svg11.dtd"><svg t="1750604097589" class="icon" viewBox="0 0 1024 1024" version="1.1" xmlns="http://www.w3.org/2000/svg" p-id="1481" width="200" height="200" xmlns:xlink="http://www.w3.org/1999/xlink"><path d="M469.333333 85.333333c212.074667 0 384 171.925333 384 384 0 90.666667-31.424 173.994667-83.968 239.68l146.901334 146.901334a42.666667 42.666667 0 0 1-58.026667 62.506666l-2.325333-2.154666-146.901334-146.901334A382.378667 382.378667 0 0 1 469.333333 853.333333c-212.074667 0-384-171.925333-384-384S257.258667 85.333333 469.333333 85.333333z m0 85.333334C304.384 170.666667 170.666667 304.384 170.666667 469.333333s133.717333 298.666667 298.666666 298.666667 298.666667-133.717333 298.666667-298.666667S634.282667 170.666667 469.333333 170.666667z" fill="#333333" p-id="1482"></path></svg>