<?xml version="1.0" encoding="utf-8"?>
<!-- Generator: Adobe Illustrator 22.0.1, SVG Export Plug-In . SVG Version: 6.00 Build 0)  -->
<svg version="1.1" xmlns="http://www.w3.org/2000/svg" xmlns:xlink="http://www.w3.org/1999/xlink" x="0px" y="0px"
	 viewBox="0 0 1080 1080" style="enable-background:new 0 0 1080 1080;" xml:space="preserve">
<style type="text/css">
	.st0{display:none;}
	.st1{display:inline;}
	.st2{font-family:'MyriadPro-Regular';}
	.st3{font-size:72px;}
</style>
<g id="Layer_1" class="st0">
	<text transform="matrix(1 0 0 1 358.7061 306.647)" class="st1 st2 st3">L X Y</text>
</g>
<g id="Layer_2">
	<path d="M400.7,294.6l37.8-0.5c5.3-0.1,10.4,2.3,13.7,6.5l89,111.6c2.4,3.1,3.8,6.9,3.8,10.8v140.6c0,9.6-7.7,17.3-17.3,17.3l0,0
		c-9.7,0-17.5-8-17.3-17.7l1.5-65.4c0.1-3.8-1.1-7.6-3.4-10.6L387,322.1C378.6,310.8,386.6,294.8,400.7,294.6z"/>
	<path d="M689.3,294.6l-37.8-0.5c-5.3-0.1-10.4,2.3-13.7,6.5l-89,111.6c-2.4,3.1-3.8,6.9-3.8,10.8v140.6c0,9.6,7.7,17.3,17.3,17.3
		l0,0c9.7,0,17.5-8,17.3-17.7l-1.5-65.4c-0.1-3.8,1.1-7.6,3.4-10.6L703,322.1C711.4,310.8,703.4,294.8,689.3,294.6z"/>
</g>
<g id="Layer_3">
	<line x1="603" y1="482" x2="493" y2="612"/>
	<path d="M404.3,444h44.3c5.3,0,10.4,2.3,13.9,6.4L510,506l32.9,35.5c3.2,3.5,5,8.1,4.9,12.9l-2.6,97.2c-0.1,4.1-1.6,8.1-4.2,11.2
		l-56.5,67.6c-0.3,0.3-0.6,0.7-0.9,1l-34.6,35.8c-7,7.2-18.6,7.4-25.8,0.4c-7.3-7.1-14.7-14.2-22-21.3c-6.9-6.7-7.5-17.6-1.2-25
		l90.5-106.3c5.8-6.8,5.8-16.9,0-23.7l-100-117.3c-2.8-3.3-4.4-7.5-4.4-11.9v0C386,452.2,394.2,444,404.3,444z"/>
	<path d="M685.7,444l-44.3,0c-5.3,0-10.4,2.3-13.9,6.4L580,506L547,541.5c-3.2,3.5-5,8.1-4.9,12.9l2.6,97.2
		c0.1,4.1,1.6,8.1,4.2,11.2l56.5,67.6c0.3,0.3,0.6,0.7,0.9,1l34.6,35.8c7,7.2,18.6,7.4,25.8,0.4c7.3-7.1,14.7-14.2,22-21.3
		c6.9-6.7,7.5-17.6,1.2-25l-90.5-106.3c-5.8-6.8-5.8-16.9,0-23.7l99.9-117.3c2.8-3.3,4.4-7.5,4.4-11.9v0
		C704,452.2,695.8,444,685.7,444z"/>
</g>
<g id="Layer_4">
	<path d="M551,905.7c-5.5,5.6-14.5,5.6-20,0l-28.6-29.5l-219.1-226c-17.8-18.4-17.2-47.8,2.2-64.6c17.4-15.1,43.8-14.2,60.1,2.5
		l185.5,188.7c5.5,5.6,14.4,5.6,19.9,0l184.8-188.1c17.8-18.1,47.4-18.2,64.5,0.6c15.5,17,15.3,43.5-1,60.2l-220.1,227L551,905.7z"
		/>
</g>
</svg>
