<svg id="OBJECTS" xmlns="http://www.w3.org/2000/svg" viewBox="0 0 402.2 78.13"><defs><style>.cls-1{fill:#4385f5;}.cls-2{fill:#ffb000;}</style></defs><title>logo</title><path class="cls-1" d="M86.53,36.72A40.07,40.07,0,0,1,88.6,53.14C82,44.64,70.88,38.58,53,47.27h0a136.53,136.53,0,0,1-19.39,9A24.69,24.69,0,0,1,1.91,40.78,40.17,40.17,0,0,1,.13,25.17C6.74,33.67,17.84,39.74,35.76,31h0a136.61,136.61,0,0,1,19.4-9C67.86,17.6,82,24,86.53,36.72Z"/><circle class="cls-2" cx="24.01" cy="13.65" r="13.65" transform="translate(-2.39 21.75) rotate(-46.68)"/><circle class="cls-2" cx="63.37" cy="64.49" r="13.65" transform="translate(-27.02 66.35) rotate(-46.68)"/><path d="M120,60.51a16.18,16.18,0,0,1-7-5.33,14.54,14.54,0,0,1-2.77-8.5h13.1A6.35,6.35,0,0,0,125.29,51a6.24,6.24,0,0,0,4.32,1.48,6.75,6.75,0,0,0,4.32-1.26,4.21,4.21,0,0,0,1.58-3.49,4.14,4.14,0,0,0-1.26-3.1,10.19,10.19,0,0,0-3.1-2,50,50,0,0,0-5.22-1.8,56.79,56.79,0,0,1-8-3,14.75,14.75,0,0,1-5.33-4.46,12.44,12.44,0,0,1-2.23-7.7,13.24,13.24,0,0,1,5.11-11.05q5.11-4,13.32-4t13.46,4a14.31,14.31,0,0,1,5.47,11.12H134.44a5.22,5.22,0,0,0-1.8-3.85,6.34,6.34,0,0,0-4.25-1.4,5.29,5.29,0,0,0-3.6,1.19A4.28,4.28,0,0,0,123.42,25a4.24,4.24,0,0,0,2.3,3.82,37.67,37.67,0,0,0,7.2,3,67,67,0,0,1,8,3.17,15.18,15.18,0,0,1,5.29,4.39,11.76,11.76,0,0,1,2.23,7.42,14.56,14.56,0,0,1-2.2,7.85,15.38,15.38,0,0,1-6.37,5.62A21.81,21.81,0,0,1,130,62.31,26,26,0,0,1,120,60.51Z"/><path d="M187.43,52.88H168.57l-3,8.93H152.65l18.29-50.54H185.2l18.29,50.54h-13Zm-3.17-9.5L178,24.87l-6.19,18.5h12.46Z"/><path d="M217.38,60.51a16.18,16.18,0,0,1-7-5.33,14.54,14.54,0,0,1-2.77-8.5h13.1A6.35,6.35,0,0,0,222.64,51,6.24,6.24,0,0,0,227,52.45a6.75,6.75,0,0,0,4.32-1.26,4.21,4.21,0,0,0,1.58-3.49,4.14,4.14,0,0,0-1.26-3.1,10.19,10.19,0,0,0-3.1-2,50,50,0,0,0-5.22-1.8,56.79,56.79,0,0,1-8-3A14.75,14.75,0,0,1,210,33.29a12.44,12.44,0,0,1-2.23-7.7,13.24,13.24,0,0,1,5.11-11.05q5.11-4,13.32-4t13.46,4a14.31,14.31,0,0,1,5.47,11.12H231.78a5.22,5.22,0,0,0-1.8-3.85,6.34,6.34,0,0,0-4.25-1.4,5.29,5.29,0,0,0-3.6,1.19A4.28,4.28,0,0,0,220.77,25a4.24,4.24,0,0,0,2.3,3.82,37.67,37.67,0,0,0,7.2,3,67,67,0,0,1,8,3.17,15.18,15.18,0,0,1,5.29,4.39,11.76,11.76,0,0,1,2.23,7.42,14.56,14.56,0,0,1-2.2,7.85,15.38,15.38,0,0,1-6.37,5.62,21.81,21.81,0,0,1-9.86,2.09A26,26,0,0,1,217.38,60.51Z"/><path d="M261.66,60.51a16.18,16.18,0,0,1-7-5.33,14.54,14.54,0,0,1-2.77-8.5H265A6.35,6.35,0,0,0,266.92,51a6.24,6.24,0,0,0,4.32,1.48,6.75,6.75,0,0,0,4.32-1.26,4.21,4.21,0,0,0,1.58-3.49,4.14,4.14,0,0,0-1.26-3.1,10.19,10.19,0,0,0-3.1-2,50,50,0,0,0-5.22-1.8,56.79,56.79,0,0,1-8-3,14.75,14.75,0,0,1-5.33-4.46,12.44,12.44,0,0,1-2.23-7.7,13.24,13.24,0,0,1,5.11-11.05q5.11-4,13.32-4t13.46,4a14.31,14.31,0,0,1,5.47,11.12H276.06a5.22,5.22,0,0,0-1.8-3.85,6.34,6.34,0,0,0-4.25-1.4,5.29,5.29,0,0,0-3.6,1.19A4.28,4.28,0,0,0,265,25a4.24,4.24,0,0,0,2.3,3.82,37.67,37.67,0,0,0,7.2,3,67,67,0,0,1,8,3.17,15.18,15.18,0,0,1,5.29,4.39A11.76,11.76,0,0,1,290,46.76a14.56,14.56,0,0,1-2.2,7.85,15.38,15.38,0,0,1-6.37,5.62,21.81,21.81,0,0,1-9.86,2.09A26,26,0,0,1,261.66,60.51Z"/><path d="M298.74,23.11a23.16,23.16,0,0,1,9-9.14,26.24,26.24,0,0,1,13.14-3.28,25.14,25.14,0,0,1,15.41,4.75,22.82,22.82,0,0,1,8.57,13H331.36a11,11,0,0,0-4.28-4.82,12.05,12.05,0,0,0-6.3-1.66,11.76,11.76,0,0,0-9.22,4q-3.53,4-3.53,10.58T311.56,47a11.76,11.76,0,0,0,9.22,4,12,12,0,0,0,6.3-1.66,10.94,10.94,0,0,0,4.28-4.82h13.54a22.65,22.65,0,0,1-8.57,12.92,25.27,25.27,0,0,1-15.41,4.72,26.23,26.23,0,0,1-13.14-3.28,23.21,23.21,0,0,1-9-9.11,27,27,0,0,1-3.24-13.32A27.17,27.17,0,0,1,298.74,23.11Z"/><path d="M363.29,59a24.75,24.75,0,0,1-9.43-9.25,25.85,25.85,0,0,1-3.49-13.36,25.66,25.66,0,0,1,3.49-13.32,24.85,24.85,0,0,1,9.43-9.22,27.44,27.44,0,0,1,26.14,0,24.33,24.33,0,0,1,9.36,9.22,26.1,26.1,0,0,1,3.42,13.32,26.06,26.06,0,0,1-3.46,13.36A24.58,24.58,0,0,1,389.39,59,27.37,27.37,0,0,1,363.29,59ZM386,47q3.64-4,3.64-10.66T386,25.7a12.46,12.46,0,0,0-9.68-4,12.6,12.6,0,0,0-9.76,4q-3.64,4-3.64,10.73t3.64,10.69a12.54,12.54,0,0,0,9.76,4A12.4,12.4,0,0,0,386,47Z"/></svg>